<?xml version="1.0" encoding="UTF-8"?>
<svg xmlns="http://www.w3.org/2000/svg" viewBox="0 0 1000 640" font-family="Segoe UI, Arial, sans-serif">
<defs>
<linearGradient id="panel" x1="0" y1="0" x2="0" y2="1">
<stop offset="0" stop-color="#3a3f4a"/><stop offset="1" stop-color="#262a33"/>
</linearGradient>
<linearGradient id="btn" x1="0" y1="0" x2="0" y2="1">
<stop offset="0" stop-color="#5a6170"/><stop offset="1" stop-color="#3c414d"/>
</linearGradient>
<radialGradient id="led" cx="0.35" cy="0.35" r="0.8">
<stop offset="0" stop-color="#ff9a6b"/><stop offset="1" stop-color="#e0461f"/>
</radialGradient>
</defs>
<rect x="20" y="20" width="960" height="600" rx="16" fill="url(#panel)" stroke="#1b1e24" stroke-width="4"/>
<text x="500" y="52" text-anchor="middle" font-size="20" font-weight="bold" fill="#ffffff">Layout A — Classic Dash (ignition bottom-left)</text>
<circle cx="300" cy="140" r="34" fill="url(#btn)" stroke="#20242c" stroke-width="3"/>
<circle cx="300" cy="140" r="14" fill="#20242c"/>
<rect x="297" y="110" width="6" height="16" rx="2" fill="#d8dbe2"/>
<circle cx="252" cy="84" r="7" fill="url(#led)" stroke="#ffd9c2" stroke-width="2"/>
<text x="252" y="196" text-anchor="middle" font-size="10" fill="#c9cedb">OFF</text>
<circle cx="300" cy="84" r="7" fill="url(#led)" stroke="#ffd9c2" stroke-width="2"/>
<text x="300" y="196" text-anchor="middle" font-size="10" fill="#c9cedb">1</text>
<circle cx="348" cy="84" r="7" fill="url(#led)" stroke="#ffd9c2" stroke-width="2"/>
<text x="348" y="196" text-anchor="middle" font-size="10" fill="#c9cedb">2</text>
<text x="300" y="218" text-anchor="middle" font-size="15" fill="#e8eaef">WIPERS</text>
<circle cx="540" cy="140" r="34" fill="url(#btn)" stroke="#20242c" stroke-width="3"/>
<circle cx="540" cy="140" r="14" fill="#20242c"/>
<rect x="537" y="110" width="6" height="16" rx="2" fill="#d8dbe2"/>
<circle cx="492" cy="84" r="7" fill="url(#led)" stroke="#ffd9c2" stroke-width="2"/>
<text x="492" y="196" text-anchor="middle" font-size="10" fill="#c9cedb">OFF</text>
<circle cx="540" cy="84" r="7" fill="url(#led)" stroke="#ffd9c2" stroke-width="2"/>
<text x="540" y="196" text-anchor="middle" font-size="10" fill="#c9cedb">P</text>
<circle cx="588" cy="84" r="7" fill="url(#led)" stroke="#ffd9c2" stroke-width="2"/>
<text x="588" y="196" text-anchor="middle" font-size="10" fill="#c9cedb">L</text>
<text x="540" y="218" text-anchor="middle" font-size="15" fill="#e8eaef">LIGHTS</text>
<circle cx="840" cy="140" r="38" fill="url(#btn)" stroke="#20242c" stroke-width="3"/>
<circle cx="840" cy="140" r="24" fill="#20242c"/>
<line x1="870.0" y1="140.0" x2="876.0" y2="140.0" stroke="#6b7382" stroke-width="2"/>
<line x1="866.0" y1="155.0" x2="871.2" y2="158.0" stroke="#6b7382" stroke-width="2"/>
<line x1="855.0" y1="166.0" x2="858.0" y2="171.2" stroke="#6b7382" stroke-width="2"/>
<line x1="840.0" y1="170.0" x2="840.0" y2="176.0" stroke="#6b7382" stroke-width="2"/>
<line x1="825.0" y1="166.0" x2="822.0" y2="171.2" stroke="#6b7382" stroke-width="2"/>
<line x1="814.0" y1="155.0" x2="808.8" y2="158.0" stroke="#6b7382" stroke-width="2"/>
<line x1="810.0" y1="140.0" x2="804.0" y2="140.0" stroke="#6b7382" stroke-width="2"/>
<line x1="814.0" y1="125.0" x2="808.8" y2="122.0" stroke="#6b7382" stroke-width="2"/>
<line x1="825.0" y1="114.0" x2="822.0" y2="108.8" stroke="#6b7382" stroke-width="2"/>
<line x1="840.0" y1="110.0" x2="840.0" y2="104.0" stroke="#6b7382" stroke-width="2"/>
<line x1="855.0" y1="114.0" x2="858.0" y2="108.8" stroke="#6b7382" stroke-width="2"/>
<line x1="866.0" y1="125.0" x2="871.2" y2="122.0" stroke="#6b7382" stroke-width="2"/>
<text x="840" y="200" text-anchor="middle" font-size="15" fill="#e8eaef">RADIO KNOB</text>
<text x="840" y="218" text-anchor="middle" font-size="10" fill="#9aa1b0">VOL + / - · PUSH = NEXT</text>
<rect x="95" y="248" width="60" height="44" rx="8" fill="url(#btn)" stroke="#20242c" stroke-width="2"/>
<rect x="119" y="264" width="12" height="26" rx="4" fill="#d8dbe2"/>
<circle cx="125" cy="264" r="3" fill="#20242c"/>
<circle cx="125" cy="226" r="8" fill="url(#led)" stroke="#ffd9c2" stroke-width="2"/>
<text x="125" y="308" text-anchor="middle" font-size="13" fill="#e8eaef">HIGH BEAM</text>
<rect x="210" y="248" width="60" height="44" rx="8" fill="url(#btn)" stroke="#20242c" stroke-width="2"/>
<rect x="234" y="264" width="12" height="26" rx="4" fill="#d8dbe2"/>
<circle cx="240" cy="264" r="3" fill="#20242c"/>
<circle cx="240" cy="226" r="8" fill="url(#led)" stroke="#ffd9c2" stroke-width="2"/>
<text x="240" y="308" text-anchor="middle" font-size="13" fill="#e8eaef">BEACON</text>
<rect x="325" y="248" width="60" height="44" rx="8" fill="url(#btn)" stroke="#20242c" stroke-width="2"/>
<rect x="349" y="264" width="12" height="26" rx="4" fill="#d8dbe2"/>
<circle cx="355" cy="264" r="3" fill="#20242c"/>
<circle cx="355" cy="226" r="8" fill="url(#led)" stroke="#ffd9c2" stroke-width="2"/>
<text x="355" y="308" text-anchor="middle" font-size="13" fill="#e8eaef">HAZARD</text>
<rect x="480" y="248" width="60" height="44" rx="8" fill="url(#btn)" stroke="#20242c" stroke-width="2"/>
<rect x="504" y="264" width="12" height="26" rx="4" fill="#d8dbe2"/>
<circle cx="510" cy="264" r="3" fill="#20242c"/>
<circle cx="510" cy="226" r="8" fill="url(#led)" stroke="#ffd9c2" stroke-width="2"/>
<text x="510" y="308" text-anchor="middle" font-size="13" fill="#e8eaef">DIFF LOCK</text>
<rect x="595" y="248" width="60" height="44" rx="8" fill="url(#btn)" stroke="#20242c" stroke-width="2"/>
<rect x="619" y="264" width="12" height="26" rx="4" fill="#d8dbe2"/>
<circle cx="625" cy="264" r="3" fill="#20242c"/>
<circle cx="625" cy="226" r="8" fill="url(#led)" stroke="#ffd9c2" stroke-width="2"/>
<text x="625" y="308" text-anchor="middle" font-size="13" fill="#e8eaef">AXLE</text>
<rect x="710" y="248" width="60" height="44" rx="8" fill="url(#btn)" stroke="#20242c" stroke-width="2"/>
<rect x="734" y="264" width="12" height="26" rx="4" fill="#d8dbe2"/>
<circle cx="740" cy="264" r="3" fill="#20242c"/>
<circle cx="740" cy="226" r="8" fill="url(#led)" stroke="#ffd9c2" stroke-width="2"/>
<text x="740" y="308" text-anchor="middle" font-size="13" fill="#e8eaef">CRUISE</text>
<rect x="216" y="366" width="68" height="48" rx="10" fill="url(#btn)" stroke="#20242c" stroke-width="2.5"/>
<rect x="243" y="374" width="14" height="44" rx="6" fill="#d8dbe2"/>
<rect x="239" y="410" width="22" height="8" rx="3" fill="#20242c"/>
<circle cx="250" cy="346" r="8" fill="url(#led)" stroke="#ffd9c2" stroke-width="2"/>
<text x="250" y="434" text-anchor="middle" font-size="13" fill="#e8eaef">PARK BRAKE</text>
<text x="250" y="450" text-anchor="middle" font-size="10" fill="#9aa1b0">PULL = ON</text>
<rect x="366" y="366" width="68" height="48" rx="10" fill="url(#btn)" stroke="#20242c" stroke-width="2.5"/>
<rect x="393" y="374" width="14" height="44" rx="6" fill="#d8dbe2"/>
<rect x="389" y="410" width="22" height="8" rx="3" fill="#20242c"/>
<circle cx="400" cy="346" r="8" fill="url(#led)" stroke="#ffd9c2" stroke-width="2"/>
<text x="400" y="434" text-anchor="middle" font-size="13" fill="#e8eaef">TRAILER BRAKE</text>
<text x="400" y="450" text-anchor="middle" font-size="10" fill="#9aa1b0">PULL = ON</text>
<rect x="576" y="364" width="68" height="52" rx="8" fill="url(#btn)" stroke="#20242c" stroke-width="2.5"/>
<line x1="610" y1="374" x2="610" y2="406" stroke="#20242c" stroke-width="3"/>
<text x="610" y="385" text-anchor="middle" font-size="10" fill="#c9cedb">▲</text>
<text x="610" y="413" text-anchor="middle" font-size="10" fill="#c9cedb">▼</text>
<circle cx="610" cy="344" r="8" fill="url(#led)" stroke="#ffd9c2" stroke-width="2"/>
<text x="610" y="438" text-anchor="middle" font-size="13" fill="#e8eaef">WIN L</text>
<text x="610" y="454" text-anchor="middle" font-size="10" fill="#9aa1b0">open ▲ close ▼</text>
<rect x="726" y="364" width="68" height="52" rx="8" fill="url(#btn)" stroke="#20242c" stroke-width="2.5"/>
<line x1="760" y1="374" x2="760" y2="406" stroke="#20242c" stroke-width="3"/>
<text x="760" y="385" text-anchor="middle" font-size="10" fill="#c9cedb">▲</text>
<text x="760" y="413" text-anchor="middle" font-size="10" fill="#c9cedb">▼</text>
<circle cx="760" cy="344" r="8" fill="url(#led)" stroke="#ffd9c2" stroke-width="2"/>
<text x="760" y="438" text-anchor="middle" font-size="13" fill="#e8eaef">WIN R</text>
<text x="760" y="454" text-anchor="middle" font-size="10" fill="#9aa1b0">open ▲ close ▼</text>
<rect x="296" y="474" width="68" height="52" rx="8" fill="url(#btn)" stroke="#20242c" stroke-width="2.5"/>
<line x1="330" y1="484" x2="330" y2="516" stroke="#20242c" stroke-width="3"/>
<text x="330" y="495" text-anchor="middle" font-size="10" fill="#c9cedb">▲</text>
<text x="330" y="523" text-anchor="middle" font-size="10" fill="#c9cedb">▼</text>
<circle cx="330" cy="454" r="8" fill="url(#led)" stroke="#ffd9c2" stroke-width="2"/>
<text x="330" y="548" text-anchor="middle" font-size="13" fill="#e8eaef">CRUISE +/-</text>
<text x="330" y="564" text-anchor="middle" font-size="10" fill="#9aa1b0">speed ▲ ▼</text>
<circle cx="640" cy="500" r="24" fill="url(#btn)" stroke="#20242c" stroke-width="2.5"/>
<circle cx="640" cy="500" r="16" fill="none" stroke="#6b7382" stroke-width="2"/>
<circle cx="640" cy="454" r="8" fill="url(#led)" stroke="#ffd9c2" stroke-width="2"/>
<text x="640" y="546" text-anchor="middle" font-size="13" fill="#e8eaef">TRAILER
ATTACH</text>
<circle cx="770" cy="500" r="24" fill="url(#btn)" stroke="#20242c" stroke-width="2.5"/>
<circle cx="770" cy="500" r="16" fill="none" stroke="#6b7382" stroke-width="2"/>
<circle cx="770" cy="454" r="8" fill="url(#led)" stroke="#ffd9c2" stroke-width="2"/>
<text x="770" y="546" text-anchor="middle" font-size="13" fill="#e8eaef">DASH
MODE</text>
<circle cx="900" cy="500" r="24" fill="url(#btn)" stroke="#20242c" stroke-width="2.5"/>
<circle cx="900" cy="500" r="16" fill="none" stroke="#6b7382" stroke-width="2"/>
<circle cx="900" cy="454" r="8" fill="url(#led)" stroke="#ffd9c2" stroke-width="2"/>
<text x="900" y="546" text-anchor="middle" font-size="13" fill="#e8eaef">AUD
PREV</text>
<circle cx="210" cy="585" r="24" fill="url(#btn)" stroke="#20242c" stroke-width="2.5"/>
<circle cx="210" cy="585" r="16" fill="none" stroke="#6b7382" stroke-width="2"/>
<circle cx="210" cy="539" r="8" fill="url(#led)" stroke="#ffd9c2" stroke-width="2"/>
<text x="210" y="631" text-anchor="middle" font-size="13" fill="#e8eaef">HORN</text>
<circle cx="330" cy="585" r="24" fill="url(#btn)" stroke="#20242c" stroke-width="2.5"/>
<circle cx="330" cy="585" r="16" fill="none" stroke="#6b7382" stroke-width="2"/>
<circle cx="330" cy="539" r="8" fill="url(#led)" stroke="#ffd9c2" stroke-width="2"/>
<text x="330" y="631" text-anchor="middle" font-size="13" fill="#e8eaef">AIR HORN</text>
<circle cx="450" cy="585" r="24" fill="url(#btn)" stroke="#20242c" stroke-width="2.5"/>
<circle cx="450" cy="585" r="16" fill="none" stroke="#6b7382" stroke-width="2"/>
<circle cx="450" cy="539" r="8" fill="url(#led)" stroke="#ffd9c2" stroke-width="2"/>
<text x="450" y="631" text-anchor="middle" font-size="13" fill="#e8eaef">LIGHT HORN</text>
<circle cx="590" cy="585" r="24" fill="url(#btn)" stroke="#20242c" stroke-width="2.5"/>
<circle cx="590" cy="585" r="16" fill="none" stroke="#6b7382" stroke-width="2"/>
<circle cx="590" cy="539" r="8" fill="url(#led)" stroke="#ffd9c2" stroke-width="2"/>
<text x="590" y="631" text-anchor="middle" font-size="13" fill="#e8eaef">ACTIVATE</text>
<circle cx="710" cy="585" r="24" fill="url(#btn)" stroke="#20242c" stroke-width="2.5"/>
<circle cx="710" cy="585" r="16" fill="none" stroke="#6b7382" stroke-width="2"/>
<circle cx="710" cy="539" r="8" fill="url(#led)" stroke="#ffd9c2" stroke-width="2"/>
<text x="710" y="631" text-anchor="middle" font-size="13" fill="#e8eaef">WIPER BACK</text>
<circle cx="105" cy="585" r="30" fill="url(#btn)" stroke="#20242c" stroke-width="3"/>
<circle cx="105" cy="585" r="20" fill="none" stroke="#6b7382" stroke-width="2"/>
<circle cx="105" cy="585" r="8" fill="#d8dbe2"/>
<text x="105" y="583" text-anchor="middle" font-size="10" fill="#3c414d">KEY</text>
<circle cx="105" cy="529" r="8" fill="url(#led)" stroke="#ffd9c2" stroke-width="2"/>
<text x="105" y="637" text-anchor="middle" font-size="15" fill="#e8eaef">IGNITION</text>
<text x="105" y="655" text-anchor="middle" font-size="10" fill="#9aa1b0">ACC · ON · START</text>
<text x="500" y="618" text-anchor="middle" font-size="12" fill="#9aa1b0">▲ FAR EDGE — front edge toward user ▼</text>
</svg>