0
SECTION
2
HEADER
0
ENDSEC
0
SECTION
2
TABLES
0
TABLE
2
LTYPE
70
1
0
ENDTAB
0
TABLE
2
LAYER
70
1
0
LAYER
2
0
70
0
62
7
6
CONTINUOUS
0
ENDTAB
0
ENDSEC
0
SECTION
2
ENTITIES
0
LINE
8
0
10
0.000
20
0.000
30
0
11
320.000
21
0.000
31
0
0
LINE
8
0
10
320.000
20
0.000
30
0
11
320.000
21
180.000
31
0
0
LINE
8
0
10
320.000
20
180.000
30
0
11
0.000
21
180.000
31
0
0
LINE
8
0
10
0.000
20
180.000
30
0
11
0.000
21
0.000
31
0
0
CIRCLE
8
0
10
35.000
20
35.000
30
0
40
11.000
0
LINE
8
0
10
20.000
20
35.000
30
0
11
50.000
21
35.000
31
0
0
LINE
8
0
10
35.000
20
20.000
30
0
11
35.000
21
50.000
31
0
0
TEXT
8
0
10
160.000
20
192.000
30
0
40
8.000
1
ETS2 BUTTON BOX - PANEL 320 x 180 mm
0
TEXT
8
0
10
55.000
20
49.000
30
0
40
5.000
1
22mm hole (ignition)
0
TEXT
8
0
10
160.000
20
-14.000
30
0
40
6.000
1
320 mm
0
TEXT
8
0
10
-30.000
20
90.000
30
0
40
6.000
1
180 mm
50
90.0
0
ENDSEC
0
EOF
