0
SECTION
2
HEADER
0
ENDSEC
0
SECTION
2
TABLES
0
TABLE
2
LTYPE
70
1
0
ENDTAB
0
TABLE
2
LAYER
70
1
0
LAYER
2
0
70
0
62
7
6
CONTINUOUS
0
ENDTAB
0
ENDSEC
0
SECTION
2
ENTITIES
0
LINE
8
0
10
0.000
20
180.000
30
0
11
320.000
21
180.000
31
0
0
LINE
8
0
10
320.000
20
180.000
30
0
11
320.000
21
0.000
31
0
0
LINE
8
0
10
320.000
20
0.000
30
0
11
0.000
21
0.000
31
0
0
LINE
8
0
10
0.000
20
0.000
30
0
11
0.000
21
180.000
31
0
0
CIRCLE
8
0
10
35.000
20
145.000
30
0
40
10.000
0
TEXT
8
0
10
35.000
20
159.000
30
0
40
3.500
1
LIGHT MODES selector
0
TEXT
8
0
10
35.000
20
132.000
30
0
40
3.000
1
20mm 3-pos
0
CIRCLE
8
0
10
35.000
20
115.000
30
0
40
10.000
0
TEXT
8
0
10
35.000
20
129.000
30
0
40
3.500
1
WIPERS selector
0
TEXT
8
0
10
35.000
20
102.000
30
0
40
3.000
1
20mm 3-pos
0
CIRCLE
8
0
10
35.000
20
85.000
30
0
40
6.000
0
TEXT
8
0
10
35.000
20
95.000
30
0
40
3.500
1
WIPERS BACK
0
TEXT
8
0
10
35.000
20
76.000
30
0
40
3.000
1
12mm MOM
0
CIRCLE
8
0
10
35.000
20
55.000
30
0
40
6.000
0
TEXT
8
0
10
35.000
20
65.000
30
0
40
3.500
1
DISPLAY MODE
0
TEXT
8
0
10
35.000
20
46.000
30
0
40
3.000
1
12mm M4
0
CIRCLE
8
0
10
35.000
20
25.000
30
0
40
11.000
0
TEXT
8
0
10
35.000
20
40.000
30
0
40
3.500
1
IGNITION
0
TEXT
8
0
10
35.000
20
11.000
30
0
40
3.000
1
22mm 22mm
0
CIRCLE
8
0
10
105.000
20
145.000
30
0
40
6.000
0
TEXT
8
0
10
105.000
20
155.000
30
0
40
3.500
1
HIGH BEAM
0
TEXT
8
0
10
105.000
20
136.000
30
0
40
3.000
1
12mm T1
0
CIRCLE
8
0
10
130.000
20
145.000
30
0
40
6.000
0
TEXT
8
0
10
130.000
20
155.000
30
0
40
3.500
1
BEACON
0
TEXT
8
0
10
130.000
20
136.000
30
0
40
3.000
1
12mm T2
0
CIRCLE
8
0
10
155.000
20
145.000
30
0
40
6.000
0
TEXT
8
0
10
155.000
20
155.000
30
0
40
3.500
1
HAZARD
0
TEXT
8
0
10
155.000
20
136.000
30
0
40
3.000
1
12mm T3
0
CIRCLE
8
0
10
180.000
20
145.000
30
0
40
6.000
0
TEXT
8
0
10
180.000
20
155.000
30
0
40
3.500
1
DIFFERENTIAL
0
TEXT
8
0
10
180.000
20
136.000
30
0
40
3.000
1
12mm T4
0
CIRCLE
8
0
10
205.000
20
145.000
30
0
40
6.000
0
TEXT
8
0
10
205.000
20
155.000
30
0
40
3.500
1
AXLE
0
TEXT
8
0
10
205.000
20
136.000
30
0
40
3.000
1
12mm T5
0
CIRCLE
8
0
10
230.000
20
145.000
30
0
40
6.000
0
TEXT
8
0
10
230.000
20
155.000
30
0
40
3.500
1
CRUISE
0
TEXT
8
0
10
230.000
20
136.000
30
0
40
3.000
1
12mm T6
0
CIRCLE
8
0
10
260.000
20
145.000
30
0
40
6.000
0
TEXT
8
0
10
260.000
20
155.000
30
0
40
3.500
1
HORN
0
TEXT
8
0
10
260.000
20
136.000
30
0
40
3.000
1
12mm M1
0
CIRCLE
8
0
10
260.000
20
115.000
30
0
40
6.000
0
TEXT
8
0
10
260.000
20
125.000
30
0
40
3.500
1
AIR HORN
0
TEXT
8
0
10
260.000
20
106.000
30
0
40
3.000
1
12mm M2
0
CIRCLE
8
0
10
260.000
20
85.000
30
0
40
6.000
0
TEXT
8
0
10
260.000
20
95.000
30
0
40
3.500
1
LIGHT HORN
0
TEXT
8
0
10
260.000
20
76.000
30
0
40
3.000
1
12mm M3
0
LINE
8
0
10
275.500
20
151.500
30
0
11
294.500
21
151.500
31
0
0
LINE
8
0
10
294.500
20
151.500
30
0
11
294.500
21
138.500
31
0
0
LINE
8
0
10
294.500
20
138.500
30
0
11
275.500
21
138.500
31
0
0
LINE
8
0
10
275.500
20
138.500
30
0
11
275.500
21
151.500
31
0
0
TEXT
8
0
10
285.000
20
158.500
30
0
40
3.500
1
LEFT WINDOW
0
TEXT
8
0
10
285.000
20
132.500
30
0
40
3.000
1
19mm R1
0
LINE
8
0
10
275.500
20
116.500
30
0
11
294.500
21
116.500
31
0
0
LINE
8
0
10
294.500
20
116.500
30
0
11
294.500
21
103.500
31
0
0
LINE
8
0
10
294.500
20
103.500
30
0
11
275.500
21
103.500
31
0
0
LINE
8
0
10
275.500
20
103.500
30
0
11
275.500
21
116.500
31
0
0
TEXT
8
0
10
285.000
20
123.500
30
0
40
3.500
1
RIGHT WINDOW
0
TEXT
8
0
10
285.000
20
97.500
30
0
40
3.000
1
19mm R2
0
CIRCLE
8
0
10
105.000
20
55.000
30
0
40
6.000
0
TEXT
8
0
10
105.000
20
65.000
30
0
40
3.500
1
ACTIVATE
0
TEXT
8
0
10
105.000
20
46.000
30
0
40
3.000
1
12mm M5
0
CIRCLE
8
0
10
130.000
20
55.000
30
0
40
6.000
0
TEXT
8
0
10
130.000
20
65.000
30
0
40
3.500
1
TRAILER ATTACH
0
TEXT
8
0
10
130.000
20
46.000
30
0
40
3.000
1
12mm M6
0
CIRCLE
8
0
10
155.000
20
55.000
30
0
40
6.000
0
TEXT
8
0
10
155.000
20
65.000
30
0
40
3.500
1
INFOMAINT
0
TEXT
8
0
10
155.000
20
46.000
30
0
40
3.000
1
12mm M9
0
CIRCLE
8
0
10
185.000
20
55.000
30
0
40
5.000
0
TEXT
8
0
10
185.000
20
64.000
30
0
40
3.500
1
CRUISE KNOB
0
TEXT
8
0
10
185.000
20
47.000
30
0
40
3.000
1
10mm EC11
0
CIRCLE
8
0
10
215.000
20
55.000
30
0
40
5.000
0
TEXT
8
0
10
215.000
20
64.000
30
0
40
3.500
1
RADIO KNOB
0
TEXT
8
0
10
215.000
20
47.000
30
0
40
3.000
1
10mm EC11
0
CIRCLE
8
0
10
245.000
20
55.000
30
0
40
6.000
0
TEXT
8
0
10
245.000
20
65.000
30
0
40
3.500
1
AUD PREV
0
TEXT
8
0
10
245.000
20
46.000
30
0
40
3.000
1
12mm M8
0
CIRCLE
8
0
10
275.000
20
55.000
30
0
40
6.000
0
TEXT
8
0
10
275.000
20
65.000
30
0
40
3.500
1
AUD NEXT
0
TEXT
8
0
10
275.000
20
46.000
30
0
40
3.000
1
12mm M7
0
CIRCLE
8
0
10
105.000
20
25.000
30
0
40
6.000
0
TEXT
8
0
10
105.000
20
35.000
30
0
40
3.500
1
PARKING BRAKE
0
TEXT
8
0
10
105.000
20
16.000
30
0
40
3.000
1
12mm PP1
0
CIRCLE
8
0
10
130.000
20
25.000
30
0
40
6.000
0
TEXT
8
0
10
130.000
20
35.000
30
0
40
3.500
1
TRAILER BRAKE
0
TEXT
8
0
10
130.000
20
16.000
30
0
40
3.000
1
12mm PP2
0
CIRCLE
8
0
10
26.000
20
158.000
30
0
40
2.500
0
TEXT
8
0
10
26.000
20
164.000
30
0
40
2.800
1
L1
0
CIRCLE
8
0
10
35.000
20
158.000
30
0
40
2.500
0
TEXT
8
0
10
35.000
20
164.000
30
0
40
2.800
1
L2
0
CIRCLE
8
0
10
44.000
20
158.000
30
0
40
2.500
0
TEXT
8
0
10
44.000
20
164.000
30
0
40
2.800
1
L3
0
CIRCLE
8
0
10
26.000
20
128.000
30
0
40
2.500
0
TEXT
8
0
10
26.000
20
134.000
30
0
40
2.800
1
L4
0
CIRCLE
8
0
10
35.000
20
128.000
30
0
40
2.500
0
TEXT
8
0
10
35.000
20
134.000
30
0
40
2.800
1
L5
0
CIRCLE
8
0
10
44.000
20
128.000
30
0
40
2.500
0
TEXT
8
0
10
44.000
20
134.000
30
0
40
2.800
1
L6
0
CIRCLE
8
0
10
105.000
20
158.000
30
0
40
2.500
0
TEXT
8
0
10
105.000
20
164.000
30
0
40
2.800
1
L7
0
CIRCLE
8
0
10
130.000
20
158.000
30
0
40
2.500
0
TEXT
8
0
10
130.000
20
164.000
30
0
40
2.800
1
L8
0
CIRCLE
8
0
10
155.000
20
158.000
30
0
40
2.500
0
TEXT
8
0
10
155.000
20
164.000
30
0
40
2.800
1
L9
0
CIRCLE
8
0
10
180.000
20
158.000
30
0
40
2.500
0
TEXT
8
0
10
180.000
20
164.000
30
0
40
2.800
1
L10
0
CIRCLE
8
0
10
205.000
20
158.000
30
0
40
2.500
0
TEXT
8
0
10
205.000
20
164.000
30
0
40
2.800
1
L11
0
CIRCLE
8
0
10
230.000
20
158.000
30
0
40
2.500
0
TEXT
8
0
10
230.000
20
164.000
30
0
40
2.800
1
L12
0
CIRCLE
8
0
10
105.000
20
38.000
30
0
40
2.500
0
TEXT
8
0
10
105.000
20
44.000
30
0
40
2.800
1
L13
0
CIRCLE
8
0
10
130.000
20
38.000
30
0
40
2.500
0
TEXT
8
0
10
130.000
20
44.000
30
0
40
2.800
1
L14
0
CIRCLE
8
0
10
35.000
20
98.000
30
0
40
2.500
0
TEXT
8
0
10
35.000
20
104.000
30
0
40
2.800
1
L15
0
CIRCLE
8
0
10
35.000
20
68.000
30
0
40
2.500
0
TEXT
8
0
10
35.000
20
74.000
30
0
40
2.800
1
L16
0
CIRCLE
8
0
10
105.000
20
68.000
30
0
40
2.500
0
TEXT
8
0
10
105.000
20
74.000
30
0
40
2.800
1
L17
0
CIRCLE
8
0
10
130.000
20
68.000
30
0
40
2.500
0
TEXT
8
0
10
130.000
20
74.000
30
0
40
2.800
1
L18
0
CIRCLE
8
0
10
155.000
20
68.000
30
0
40
2.500
0
TEXT
8
0
10
155.000
20
74.000
30
0
40
2.800
1
L19
0
CIRCLE
8
0
10
260.000
20
158.000
30
0
40
2.500
0
TEXT
8
0
10
260.000
20
164.000
30
0
40
2.800
1
L20
0
CIRCLE
8
0
10
260.000
20
128.000
30
0
40
2.500
0
TEXT
8
0
10
260.000
20
134.000
30
0
40
2.800
1
L21
0
CIRCLE
8
0
10
260.000
20
98.000
30
0
40
2.500
0
TEXT
8
0
10
260.000
20
104.000
30
0
40
2.800
1
L22
0
CIRCLE
8
0
10
35.000
20
38.000
30
0
40
2.500
0
TEXT
8
0
10
35.000
20
44.000
30
0
40
2.800
1
L23
0
TEXT
8
0
10
160.000
20
-14.000
30
0
40
7.000
1
ETS2 BUTTON BOX - PANEL 320 x 180 mm (full layout)
0
TEXT
8
0
10
160.000
20
194.000
30
0
40
5.000
1
320 mm
0
TEXT
8
0
10
-42.000
20
90.000
30
0
40
5.000
1
180 mm
50
90.0
0
TEXT
8
0
10
160.000
20
206.000
30
0
40
4.000
1
All holes in mm. Ignition = 22mm. LEDs = 5mm.
0
ENDSEC
0
EOF
